<mxfile host="app.diagrams.net" modified="2022-04-30T05:22:10.280Z" agent="5.0 (Windows NT 10.0; Win64; x64) AppleWebKit/537.36 (KHTML, like Gecko) Chrome/100.0.4896.127 Safari/537.36" etag="YU1P52LBLXfUOZGCYKjx" version="17.4.6" type="github">
  <diagram name="Page-1" id="74e2e168-ea6b-b213-b513-2b3c1d86103e">
    <mxGraphModel dx="2555" dy="1005" grid="1" gridSize="10" guides="1" tooltips="1" connect="1" arrows="1" fold="1" page="1" pageScale="1" pageWidth="1100" pageHeight="850" background="none" math="0" shadow="0">
      <root>
        <mxCell id="0" />
        <mxCell id="1" parent="0" />
        <mxCell id="77e6c97f196da883-1" value="Pool" style="swimlane;html=1;childLayout=stackLayout;startSize=20;rounded=0;shadow=0;labelBackgroundColor=none;strokeWidth=1;fontFamily=Verdana;fontSize=8;align=center;" parent="1" vertex="1">
          <mxGeometry x="40" y="90" width="970" height="1010" as="geometry" />
        </mxCell>
        <mxCell id="77e6c97f196da883-2" value="Main" style="swimlane;html=1;startSize=20;" parent="77e6c97f196da883-1" vertex="1">
          <mxGeometry y="20" width="190" height="990" as="geometry" />
        </mxCell>
        <mxCell id="zZXoh5Jl4H94AEWi5GMI-18" style="edgeStyle=none;curved=1;rounded=0;orthogonalLoop=1;jettySize=auto;html=1;exitX=0.5;exitY=1;exitDx=0;exitDy=0;entryX=0.5;entryY=0;entryDx=0;entryDy=0;endArrow=open;startSize=14;endSize=14;sourcePerimeterSpacing=8;targetPerimeterSpacing=8;" edge="1" parent="77e6c97f196da883-2" source="77e6c97f196da883-8" target="zZXoh5Jl4H94AEWi5GMI-1">
          <mxGeometry relative="1" as="geometry" />
        </mxCell>
        <mxCell id="77e6c97f196da883-8" value="start" style="rounded=1;whiteSpace=wrap;html=1;shadow=0;labelBackgroundColor=none;strokeWidth=1;fontFamily=Verdana;fontSize=8;align=center;" parent="77e6c97f196da883-2" vertex="1">
          <mxGeometry x="55" y="60" width="50" height="15" as="geometry" />
        </mxCell>
        <mxCell id="77e6c97f196da883-10" value="end" style="rounded=1;whiteSpace=wrap;html=1;shadow=0;labelBackgroundColor=none;strokeWidth=1;fontFamily=Verdana;fontSize=8;align=center;" parent="77e6c97f196da883-2" vertex="1">
          <mxGeometry x="70" y="920" width="50" height="20" as="geometry" />
        </mxCell>
        <mxCell id="zZXoh5Jl4H94AEWi5GMI-1" value="MaxSubArray(0, num)" style="shape=process;whiteSpace=wrap;html=1;backgroundOutline=1;hachureGap=4;" vertex="1" parent="77e6c97f196da883-2">
          <mxGeometry x="15" y="100" width="130" height="50" as="geometry" />
        </mxCell>
        <mxCell id="77e6c97f196da883-3" value="MaxSubArray" style="swimlane;html=1;startSize=20;" parent="77e6c97f196da883-1" vertex="1">
          <mxGeometry x="190" y="20" width="660" height="990" as="geometry" />
        </mxCell>
        <mxCell id="zZXoh5Jl4H94AEWi5GMI-21" style="edgeStyle=orthogonalEdgeStyle;rounded=0;orthogonalLoop=1;jettySize=auto;html=1;exitX=1;exitY=0.5;exitDx=0;exitDy=0;entryX=0;entryY=0.5;entryDx=0;entryDy=0;endArrow=open;startSize=14;endSize=14;sourcePerimeterSpacing=8;targetPerimeterSpacing=8;" edge="1" parent="77e6c97f196da883-3" source="zZXoh5Jl4H94AEWi5GMI-2" target="zZXoh5Jl4H94AEWi5GMI-5">
          <mxGeometry relative="1" as="geometry" />
        </mxCell>
        <mxCell id="zZXoh5Jl4H94AEWi5GMI-22" style="edgeStyle=orthogonalEdgeStyle;rounded=0;orthogonalLoop=1;jettySize=auto;html=1;exitX=0.5;exitY=1;exitDx=0;exitDy=0;entryX=0.5;entryY=0;entryDx=0;entryDy=0;endArrow=open;startSize=14;endSize=14;sourcePerimeterSpacing=8;targetPerimeterSpacing=8;" edge="1" parent="77e6c97f196da883-3" source="zZXoh5Jl4H94AEWi5GMI-2" target="zZXoh5Jl4H94AEWi5GMI-3">
          <mxGeometry relative="1" as="geometry" />
        </mxCell>
        <mxCell id="zZXoh5Jl4H94AEWi5GMI-2" value="num == 1" style="rhombus;whiteSpace=wrap;html=1;hachureGap=4;" vertex="1" parent="77e6c97f196da883-3">
          <mxGeometry x="35" y="200" width="100" height="50" as="geometry" />
        </mxCell>
        <mxCell id="zZXoh5Jl4H94AEWi5GMI-23" style="edgeStyle=orthogonalEdgeStyle;rounded=0;orthogonalLoop=1;jettySize=auto;html=1;exitX=1;exitY=0.5;exitDx=0;exitDy=0;entryX=0;entryY=0.5;entryDx=0;entryDy=0;endArrow=open;startSize=14;endSize=14;sourcePerimeterSpacing=8;targetPerimeterSpacing=8;" edge="1" parent="77e6c97f196da883-3" source="zZXoh5Jl4H94AEWi5GMI-3" target="zZXoh5Jl4H94AEWi5GMI-6">
          <mxGeometry relative="1" as="geometry" />
        </mxCell>
        <mxCell id="zZXoh5Jl4H94AEWi5GMI-24" style="edgeStyle=orthogonalEdgeStyle;rounded=0;orthogonalLoop=1;jettySize=auto;html=1;exitX=0.5;exitY=1;exitDx=0;exitDy=0;entryX=0.5;entryY=0;entryDx=0;entryDy=0;endArrow=open;startSize=14;endSize=14;sourcePerimeterSpacing=8;targetPerimeterSpacing=8;" edge="1" parent="77e6c97f196da883-3" source="zZXoh5Jl4H94AEWi5GMI-3" target="zZXoh5Jl4H94AEWi5GMI-4">
          <mxGeometry relative="1" as="geometry" />
        </mxCell>
        <mxCell id="zZXoh5Jl4H94AEWi5GMI-3" value="num == 2" style="rhombus;whiteSpace=wrap;html=1;hachureGap=4;" vertex="1" parent="77e6c97f196da883-3">
          <mxGeometry x="30" y="300" width="110" height="50" as="geometry" />
        </mxCell>
        <mxCell id="zZXoh5Jl4H94AEWi5GMI-25" style="edgeStyle=orthogonalEdgeStyle;rounded=0;orthogonalLoop=1;jettySize=auto;html=1;exitX=1;exitY=0.5;exitDx=0;exitDy=0;entryX=0;entryY=0.75;entryDx=0;entryDy=0;endArrow=open;startSize=14;endSize=14;sourcePerimeterSpacing=8;targetPerimeterSpacing=8;" edge="1" parent="77e6c97f196da883-3" source="zZXoh5Jl4H94AEWi5GMI-4" target="zZXoh5Jl4H94AEWi5GMI-7">
          <mxGeometry relative="1" as="geometry" />
        </mxCell>
        <mxCell id="zZXoh5Jl4H94AEWi5GMI-4" value="num == 3" style="rhombus;whiteSpace=wrap;html=1;hachureGap=4;" vertex="1" parent="77e6c97f196da883-3">
          <mxGeometry x="30" y="400" width="110" height="50" as="geometry" />
        </mxCell>
        <mxCell id="zZXoh5Jl4H94AEWi5GMI-5" value="data[from]を返す" style="shape=parallelogram;perimeter=parallelogramPerimeter;whiteSpace=wrap;html=1;fixedSize=1;hachureGap=4;" vertex="1" parent="77e6c97f196da883-3">
          <mxGeometry x="530" y="212.5" width="140" height="25" as="geometry" />
        </mxCell>
        <mxCell id="zZXoh5Jl4H94AEWi5GMI-6" value="data[from]とdata[from+1]を比べ大きい方の値を返す" style="shape=parallelogram;perimeter=parallelogramPerimeter;whiteSpace=wrap;html=1;fixedSize=1;hachureGap=4;" vertex="1" parent="77e6c97f196da883-3">
          <mxGeometry x="380" y="310" width="160" height="30" as="geometry" />
        </mxCell>
        <mxCell id="zZXoh5Jl4H94AEWi5GMI-26" style="edgeStyle=orthogonalEdgeStyle;rounded=0;orthogonalLoop=1;jettySize=auto;html=1;exitX=0.5;exitY=1;exitDx=0;exitDy=0;entryX=0.5;entryY=0;entryDx=0;entryDy=0;endArrow=open;startSize=14;endSize=14;sourcePerimeterSpacing=8;targetPerimeterSpacing=8;" edge="1" parent="77e6c97f196da883-3" source="zZXoh5Jl4H94AEWi5GMI-7" target="zZXoh5Jl4H94AEWi5GMI-8">
          <mxGeometry relative="1" as="geometry" />
        </mxCell>
        <mxCell id="zZXoh5Jl4H94AEWi5GMI-7" value="midに要素数の半分の数値を代入" style="shape=parallelogram;perimeter=parallelogramPerimeter;whiteSpace=wrap;html=1;fixedSize=1;hachureGap=4;" vertex="1" parent="77e6c97f196da883-3">
          <mxGeometry x="180" y="410" width="200" height="30" as="geometry" />
        </mxCell>
        <mxCell id="zZXoh5Jl4H94AEWi5GMI-29" style="edgeStyle=orthogonalEdgeStyle;rounded=0;orthogonalLoop=1;jettySize=auto;html=1;exitX=0.5;exitY=1;exitDx=0;exitDy=0;entryX=0.5;entryY=0;entryDx=0;entryDy=0;endArrow=open;startSize=14;endSize=14;sourcePerimeterSpacing=8;targetPerimeterSpacing=8;" edge="1" parent="77e6c97f196da883-3" source="zZXoh5Jl4H94AEWi5GMI-9" target="zZXoh5Jl4H94AEWi5GMI-12">
          <mxGeometry relative="1" as="geometry" />
        </mxCell>
        <mxCell id="zZXoh5Jl4H94AEWi5GMI-9" value="&lt;span style=&quot;color: rgb(0 , 0 , 0) ; font-family: &amp;#34;helvetica&amp;#34; ; font-size: 12px ; font-style: normal ; font-weight: 400 ; letter-spacing: normal ; text-align: center ; text-indent: 0px ; text-transform: none ; word-spacing: 0px ; background-color: rgb(248 , 249 , 250) ; display: inline ; float: none&quot;&gt;maxSubarray(from+mid,num -mid)&lt;/span&gt;" style="shape=process;whiteSpace=wrap;html=1;backgroundOutline=1;hachureGap=4;" vertex="1" parent="77e6c97f196da883-3">
          <mxGeometry x="165" y="590" width="235" height="30" as="geometry" />
        </mxCell>
        <mxCell id="zZXoh5Jl4H94AEWi5GMI-28" style="edgeStyle=orthogonalEdgeStyle;rounded=0;orthogonalLoop=1;jettySize=auto;html=1;exitX=0.5;exitY=1;exitDx=0;exitDy=0;entryX=0.5;entryY=0;entryDx=0;entryDy=0;endArrow=open;startSize=14;endSize=14;sourcePerimeterSpacing=8;targetPerimeterSpacing=8;" edge="1" parent="77e6c97f196da883-3" source="zZXoh5Jl4H94AEWi5GMI-11" target="zZXoh5Jl4H94AEWi5GMI-9">
          <mxGeometry relative="1" as="geometry" />
        </mxCell>
        <mxCell id="zZXoh5Jl4H94AEWi5GMI-11" value="返り値をmax1に代入" style="shape=parallelogram;perimeter=parallelogramPerimeter;whiteSpace=wrap;html=1;fixedSize=1;hachureGap=4;" vertex="1" parent="77e6c97f196da883-3">
          <mxGeometry x="195" y="550" width="170" height="20" as="geometry" />
        </mxCell>
        <mxCell id="zZXoh5Jl4H94AEWi5GMI-30" style="edgeStyle=orthogonalEdgeStyle;rounded=0;orthogonalLoop=1;jettySize=auto;html=1;exitX=0.5;exitY=1;exitDx=0;exitDy=0;entryX=0.5;entryY=0;entryDx=0;entryDy=0;endArrow=open;startSize=14;endSize=14;sourcePerimeterSpacing=8;targetPerimeterSpacing=8;" edge="1" parent="77e6c97f196da883-3" source="zZXoh5Jl4H94AEWi5GMI-12" target="zZXoh5Jl4H94AEWi5GMI-13">
          <mxGeometry relative="1" as="geometry" />
        </mxCell>
        <mxCell id="zZXoh5Jl4H94AEWi5GMI-12" value="返り値をmax2に代入" style="shape=parallelogram;perimeter=parallelogramPerimeter;whiteSpace=wrap;html=1;fixedSize=1;hachureGap=4;" vertex="1" parent="77e6c97f196da883-3">
          <mxGeometry x="190" y="630" width="180" height="20" as="geometry" />
        </mxCell>
        <mxCell id="zZXoh5Jl4H94AEWi5GMI-31" style="edgeStyle=orthogonalEdgeStyle;rounded=0;orthogonalLoop=1;jettySize=auto;html=1;exitX=0.5;exitY=1;exitDx=0;exitDy=0;entryX=0.5;entryY=0;entryDx=0;entryDy=0;endArrow=open;startSize=14;endSize=14;sourcePerimeterSpacing=8;targetPerimeterSpacing=8;" edge="1" parent="77e6c97f196da883-3" source="zZXoh5Jl4H94AEWi5GMI-13" target="zZXoh5Jl4H94AEWi5GMI-14">
          <mxGeometry relative="1" as="geometry" />
        </mxCell>
        <mxCell id="zZXoh5Jl4H94AEWi5GMI-13" value="max3Lにfrom+midから左端までの最大部分配列の値を求め代入" style="shape=parallelogram;perimeter=parallelogramPerimeter;whiteSpace=wrap;html=1;fixedSize=1;hachureGap=4;" vertex="1" parent="77e6c97f196da883-3">
          <mxGeometry x="177.5" y="670" width="210" height="30" as="geometry" />
        </mxCell>
        <mxCell id="zZXoh5Jl4H94AEWi5GMI-32" style="edgeStyle=orthogonalEdgeStyle;rounded=0;orthogonalLoop=1;jettySize=auto;html=1;exitX=0.5;exitY=1;exitDx=0;exitDy=0;entryX=0.5;entryY=0;entryDx=0;entryDy=0;endArrow=open;startSize=14;endSize=14;sourcePerimeterSpacing=8;targetPerimeterSpacing=8;" edge="1" parent="77e6c97f196da883-3" source="zZXoh5Jl4H94AEWi5GMI-14" target="zZXoh5Jl4H94AEWi5GMI-15">
          <mxGeometry relative="1" as="geometry" />
        </mxCell>
        <mxCell id="zZXoh5Jl4H94AEWi5GMI-14" value="max3Rにfrom+mid+1から右端までの最大部分配列の値を求め代入" style="shape=parallelogram;perimeter=parallelogramPerimeter;whiteSpace=wrap;html=1;fixedSize=1;hachureGap=4;" vertex="1" parent="77e6c97f196da883-3">
          <mxGeometry x="167.5" y="720" width="230" height="30" as="geometry" />
        </mxCell>
        <mxCell id="zZXoh5Jl4H94AEWi5GMI-33" style="edgeStyle=orthogonalEdgeStyle;rounded=0;orthogonalLoop=1;jettySize=auto;html=1;exitX=0.5;exitY=1;exitDx=0;exitDy=0;entryX=0.5;entryY=0;entryDx=0;entryDy=0;endArrow=open;startSize=14;endSize=14;sourcePerimeterSpacing=8;targetPerimeterSpacing=8;" edge="1" parent="77e6c97f196da883-3" source="zZXoh5Jl4H94AEWi5GMI-15" target="zZXoh5Jl4H94AEWi5GMI-16">
          <mxGeometry relative="1" as="geometry" />
        </mxCell>
        <mxCell id="zZXoh5Jl4H94AEWi5GMI-15" value="max3 = max3L + max3R" style="shape=parallelogram;perimeter=parallelogramPerimeter;whiteSpace=wrap;html=1;fixedSize=1;hachureGap=4;" vertex="1" parent="77e6c97f196da883-3">
          <mxGeometry x="182.5" y="770" width="200" height="20" as="geometry" />
        </mxCell>
        <mxCell id="zZXoh5Jl4H94AEWi5GMI-16" value="関数の返り値として&lt;br&gt;max1,2,3の中で一番大きい変数の値を返す" style="shape=parallelogram;perimeter=parallelogramPerimeter;whiteSpace=wrap;html=1;fixedSize=1;hachureGap=4;" vertex="1" parent="77e6c97f196da883-3">
          <mxGeometry x="162.5" y="810" width="240" height="30" as="geometry" />
        </mxCell>
        <mxCell id="zZXoh5Jl4H94AEWi5GMI-27" style="edgeStyle=orthogonalEdgeStyle;rounded=0;orthogonalLoop=1;jettySize=auto;html=1;exitX=0.5;exitY=1;exitDx=0;exitDy=0;entryX=0.5;entryY=0;entryDx=0;entryDy=0;endArrow=open;startSize=14;endSize=14;sourcePerimeterSpacing=8;targetPerimeterSpacing=8;" edge="1" parent="77e6c97f196da883-3" source="zZXoh5Jl4H94AEWi5GMI-8" target="zZXoh5Jl4H94AEWi5GMI-11">
          <mxGeometry relative="1" as="geometry" />
        </mxCell>
        <mxCell id="zZXoh5Jl4H94AEWi5GMI-8" value="maxSubarray(from,mid)" style="shape=process;whiteSpace=wrap;html=1;backgroundOutline=1;hachureGap=4;" vertex="1" parent="77e6c97f196da883-3">
          <mxGeometry x="192.5" y="470" width="180" height="50" as="geometry" />
        </mxCell>
        <mxCell id="zZXoh5Jl4H94AEWi5GMI-38" value="Yes" style="text;html=1;align=center;verticalAlign=middle;resizable=0;points=[];autosize=1;strokeColor=none;fillColor=none;hachureGap=4;" vertex="1" parent="77e6c97f196da883-3">
          <mxGeometry x="130" y="192.5" width="30" height="20" as="geometry" />
        </mxCell>
        <mxCell id="zZXoh5Jl4H94AEWi5GMI-39" value="Yes" style="text;html=1;align=center;verticalAlign=middle;resizable=0;points=[];autosize=1;strokeColor=none;fillColor=none;hachureGap=4;" vertex="1" parent="77e6c97f196da883-3">
          <mxGeometry x="132.5" y="300" width="30" height="20" as="geometry" />
        </mxCell>
        <mxCell id="zZXoh5Jl4H94AEWi5GMI-40" value="Yes" style="text;html=1;align=center;verticalAlign=middle;resizable=0;points=[];autosize=1;strokeColor=none;fillColor=none;hachureGap=4;" vertex="1" parent="77e6c97f196da883-3">
          <mxGeometry x="130" y="390" width="30" height="20" as="geometry" />
        </mxCell>
        <mxCell id="77e6c97f196da883-4" value="Lane 3" style="swimlane;html=1;startSize=20;" parent="77e6c97f196da883-1" vertex="1" collapsed="1">
          <mxGeometry x="850" y="20" width="30" height="990" as="geometry">
            <mxRectangle x="510" y="20" width="160" height="730" as="alternateBounds" />
          </mxGeometry>
        </mxCell>
        <mxCell id="77e6c97f196da883-5" value="Lane 4" style="swimlane;html=1;startSize=20;" parent="77e6c97f196da883-1" vertex="1" collapsed="1">
          <mxGeometry x="880" y="20" width="30" height="990" as="geometry">
            <mxRectangle x="540" y="20" width="160" height="730" as="alternateBounds" />
          </mxGeometry>
        </mxCell>
        <mxCell id="77e6c97f196da883-6" value="Lane 5" style="swimlane;html=1;startSize=20;" parent="77e6c97f196da883-1" vertex="1" collapsed="1">
          <mxGeometry x="910" y="20" width="30" height="990" as="geometry">
            <mxRectangle x="570" y="20" width="160" height="730" as="alternateBounds" />
          </mxGeometry>
        </mxCell>
        <mxCell id="77e6c97f196da883-7" value="Lane 6" style="swimlane;html=1;startSize=20;" parent="77e6c97f196da883-1" vertex="1" collapsed="1">
          <mxGeometry x="940" y="20" width="30" height="990" as="geometry">
            <mxRectangle x="600" y="20" width="160" height="730" as="alternateBounds" />
          </mxGeometry>
        </mxCell>
        <mxCell id="zZXoh5Jl4H94AEWi5GMI-20" style="edgeStyle=orthogonalEdgeStyle;rounded=0;orthogonalLoop=1;jettySize=auto;html=1;exitX=0.5;exitY=1;exitDx=0;exitDy=0;entryX=0.5;entryY=0;entryDx=0;entryDy=0;endArrow=open;startSize=14;endSize=14;sourcePerimeterSpacing=8;targetPerimeterSpacing=8;" edge="1" parent="77e6c97f196da883-1" source="zZXoh5Jl4H94AEWi5GMI-1" target="zZXoh5Jl4H94AEWi5GMI-2">
          <mxGeometry relative="1" as="geometry" />
        </mxCell>
        <mxCell id="zZXoh5Jl4H94AEWi5GMI-34" style="edgeStyle=orthogonalEdgeStyle;rounded=0;orthogonalLoop=1;jettySize=auto;html=1;exitX=0.5;exitY=1;exitDx=0;exitDy=0;entryX=0.5;entryY=0;entryDx=0;entryDy=0;endArrow=open;startSize=14;endSize=14;sourcePerimeterSpacing=8;targetPerimeterSpacing=8;" edge="1" parent="77e6c97f196da883-1" source="zZXoh5Jl4H94AEWi5GMI-16" target="77e6c97f196da883-10">
          <mxGeometry relative="1" as="geometry" />
        </mxCell>
        <mxCell id="zZXoh5Jl4H94AEWi5GMI-35" style="edgeStyle=orthogonalEdgeStyle;rounded=0;orthogonalLoop=1;jettySize=auto;html=1;exitX=0.5;exitY=1;exitDx=0;exitDy=0;entryX=0.5;entryY=0;entryDx=0;entryDy=0;endArrow=open;startSize=14;endSize=14;sourcePerimeterSpacing=8;targetPerimeterSpacing=8;" edge="1" parent="77e6c97f196da883-1" source="zZXoh5Jl4H94AEWi5GMI-4" target="77e6c97f196da883-10">
          <mxGeometry relative="1" as="geometry" />
        </mxCell>
        <mxCell id="zZXoh5Jl4H94AEWi5GMI-36" style="edgeStyle=orthogonalEdgeStyle;rounded=0;orthogonalLoop=1;jettySize=auto;html=1;exitX=0.5;exitY=1;exitDx=0;exitDy=0;entryX=0.5;entryY=0;entryDx=0;entryDy=0;endArrow=open;startSize=14;endSize=14;sourcePerimeterSpacing=8;targetPerimeterSpacing=8;" edge="1" parent="77e6c97f196da883-1" source="zZXoh5Jl4H94AEWi5GMI-6" target="77e6c97f196da883-10">
          <mxGeometry relative="1" as="geometry">
            <Array as="points">
              <mxPoint x="650" y="900" />
              <mxPoint x="95" y="900" />
            </Array>
          </mxGeometry>
        </mxCell>
        <mxCell id="zZXoh5Jl4H94AEWi5GMI-37" style="edgeStyle=orthogonalEdgeStyle;rounded=0;orthogonalLoop=1;jettySize=auto;html=1;exitX=0.5;exitY=1;exitDx=0;exitDy=0;entryX=0.5;entryY=0;entryDx=0;entryDy=0;endArrow=open;startSize=14;endSize=14;sourcePerimeterSpacing=8;targetPerimeterSpacing=8;" edge="1" parent="77e6c97f196da883-1" source="zZXoh5Jl4H94AEWi5GMI-5" target="77e6c97f196da883-10">
          <mxGeometry relative="1" as="geometry">
            <Array as="points">
              <mxPoint x="790" y="910" />
              <mxPoint x="95" y="910" />
            </Array>
          </mxGeometry>
        </mxCell>
      </root>
    </mxGraphModel>
  </diagram>
</mxfile>
